<svg xmlns="http://www.w3.org/2000/svg" width="133.88" height="30.44" viewBox="0 0 133.88 30.44"><defs><style>.a{fill:#fff;}.b{fill:#000639;}.b,.c,.d{fill-rule:evenodd;}.c{fill:#67c462;}.d{fill:#74df70;}</style></defs><g transform="translate(0 0)"><rect class="a" width="133.881" height="30.44" transform="translate(0 0)"/><g transform="translate(0 0)"><path class="b" d="M49.91,15.691a4.636,4.636,0,0,0,0,6.059,3.554,3.554,0,0,0,2.76,1.264,3.592,3.592,0,0,0,2.793-1.264,4.635,4.635,0,0,0,0-6.059,3.68,3.68,0,0,0-5.551,0Zm-.9-3.312a4.564,4.564,0,0,1,1.975-1.542,7.1,7.1,0,0,1,2.93-.593,7.829,7.829,0,0,1,5.741,2.406,8.535,8.535,0,0,1,2.4,6.3,8.537,8.537,0,0,1-2.437,6.3,7.92,7.92,0,0,1-5.806,2.44,6.864,6.864,0,0,1-2.827-.576,4.855,4.855,0,0,1-2.01-1.559V26.88a.695.695,0,0,1-.716.711H44.849a.74.74,0,0,1-.545-.2.685.685,0,0,1-.2-.508V4.211a.687.687,0,0,1,.2-.509.738.738,0,0,1,.545-.2h3.441a.715.715,0,0,1,.493.2.664.664,0,0,1,.222.509v8.167Zm20.225-1.963V19.2a3.918,3.918,0,0,0,.84,2.649,3.1,3.1,0,0,0,2.486.973,3.217,3.217,0,0,0,2.5-.973,3.676,3.676,0,0,0,.891-2.583V10.415a.623.623,0,0,1,.218-.47.7.7,0,0,1,.487-.2h3.393a.7.7,0,0,1,.537.218.737.737,0,0,1,.2.52V26.108a.679.679,0,0,1-.2.5.727.727,0,0,1-.538.2H76.654a.716.716,0,0,1-.5-.186.625.625,0,0,1-.2-.486V24.736a6.044,6.044,0,0,1-4.9,2.18,6.368,6.368,0,0,1-4.854-1.9,6.988,6.988,0,0,1-1.8-5.015v-9.59a.6.6,0,0,1,.234-.47.763.763,0,0,1,.5-.2h3.359a.739.739,0,0,1,.52.2.623.623,0,0,1,.219.47m21.317-.671a10.948,10.948,0,0,1,3.906.645,7.664,7.664,0,0,1,2.6,1.516.954.954,0,0,1,.068,1.534L95.879,14.9q-.6.732-1.61.106a6.66,6.66,0,0,0-3.721-1.36,2.839,2.839,0,0,0-1.526.366,1.05,1.05,0,0,0-.586.888q0,1.013,1.878,1.4l2.581.522q5.063,1.012,5.063,5.126a5.05,5.05,0,0,1-2.045,4.13A8.324,8.324,0,0,1,90.582,27.7a10.245,10.245,0,0,1-6.2-1.882q-2.079-1.5-.7-2.614l1.475-1.186a1.168,1.168,0,0,1,1.643.1,5.821,5.821,0,0,0,3.957,1.709,2.833,2.833,0,0,0,1.66-.418A1.222,1.222,0,0,0,93,22.4a1.028,1.028,0,0,0-.552-.924,5.971,5.971,0,0,0-1.794-.575l-2.682-.592A5.848,5.848,0,0,1,84.731,18.6a4.688,4.688,0,0,1-1.191-3.311,4.939,4.939,0,0,1,1.911-3.956,7.728,7.728,0,0,1,5.1-1.586M112.6,27.016V18.783a4.178,4.178,0,0,0-.974-2.894,3.424,3.424,0,0,0-2.689-1.089,3.61,3.61,0,0,0-2.755,1.107,4.028,4.028,0,0,0-1.042,2.877v8.233a.619.619,0,0,1-.219.494.774.774,0,0,1-.52.186h-3.394a.7.7,0,0,1-.707-.714V4.214a.7.7,0,0,1,.2-.511.678.678,0,0,1,.5-.2H104.4a.773.773,0,0,1,.521.187.617.617,0,0,1,.219.493v8.3a6.47,6.47,0,0,1,5.309-2.212,6.673,6.673,0,0,1,5.108,2.042,7.22,7.22,0,0,1,1.915,5.14v9.561a.617.617,0,0,1-.219.494.773.773,0,0,1-.52.186h-3.395a.775.775,0,0,1-.521-.187.619.619,0,0,1-.219-.493" transform="translate(-5.853 -0.378)"/><g transform="translate(113.96 9.366)"><path class="b" d="M5.8,5.947A4.426,4.426,0,0,0,4.683,8.976,4.423,4.423,0,0,0,5.8,12.006a3.563,3.563,0,0,0,2.788,1.264,3.566,3.566,0,0,0,2.788-1.264,4.427,4.427,0,0,0,1.114-3.029,4.43,4.43,0,0,0-1.114-3.029A3.568,3.568,0,0,0,8.586,4.683,3.566,3.566,0,0,0,5.8,5.947m-3.329,9.5A8.862,8.862,0,0,1,0,8.959,8.793,8.793,0,0,1,2.469,2.493,7.952,7.952,0,0,1,8.312,0,6.3,6.3,0,0,1,11.19.645,4.5,4.5,0,0,1,13.08,2.3V.874A.747.747,0,0,1,13.3.334.679.679,0,0,1,13.8.108h3.44a.661.661,0,0,1,.511.225.781.781,0,0,1,.2.54V17.113a.716.716,0,0,1-.2.523.685.685,0,0,1-.511.209H13.8a.7.7,0,0,1-.494-.208.688.688,0,0,1-.221-.524V15.652a4.508,4.508,0,0,1-1.891,1.656,6.379,6.379,0,0,1-2.912.644,7.888,7.888,0,0,1-5.809-2.51" transform="translate(0 0)"/></g><g transform="translate(4.683 0)"><path class="c" d="M23.82,16.263l-1.425.909-2.917-5.249A9.2,9.2,0,0,0,11.432,7.2H.9L11.214.633a4.047,4.047,0,0,1,5.007.526l8.335,8.213a4.423,4.423,0,0,1-.735,6.891" transform="translate(-0.9 -0.001)"/></g><g transform="translate(0 9.366)"><path class="d" d="M23.172,21.975H10.909a3.156,3.156,0,0,1-2.865-1.863L.236,3,.12,2.741A1.3,1.3,0,0,1,.11,1.672c.009-.023.021-.043.032-.069A1.266,1.266,0,0,1,1.272.9H14.646a6.967,6.967,0,0,1,6.12,3.681l2.954,5.454L26.8,15.716a4.219,4.219,0,0,1-3.625,6.258" transform="translate(0 -0.9)"/></g></g></g></svg>